<svg xmlns="http://www.w3.org/2000/svg" viewBox="0 0 500 500" width="120" height="120">
  <!-- Background circle -->
  <circle cx="250" cy="250" r="240" fill="#121222" />
  
  <!-- Outer ring representing the loom -->
  <circle cx="250" cy="250" r="210" fill="none" stroke="#3498db" stroke-width="6" />
  
  <!-- Neural network/loom thread pattern -->
  <!-- Central hub -->
  <circle cx="250" cy="250" r="25" fill="#3498db" />
  
  <!-- Thread nodes representing different AI technologies -->
  <circle cx="250" cy="120" r="15" fill="#9b59b6" /> <!-- LLM node -->
  <circle cx="380" cy="250" r="15" fill="#e74c3c" /> <!-- Image Gen node -->
  <circle cx="315" cy="380" r="15" fill="#2ecc71" /> <!-- TTS node -->
  <circle cx="185" cy="380" r="15" fill="#f39c12" /> <!-- STT node -->
  <circle cx="120" cy="250" r="15" fill="#1abc9c" /> <!-- RAG node -->
  <circle cx="185" cy="120" r="15" fill="#e67e22" /> <!-- Future node -->
  <circle cx="315" cy="120" r="15" fill="#9b59b6" /> <!-- Future node -->
  
  <!-- Connecting threads -->
  <!-- Main threads from center to each node -->
  <line x1="250" y1="250" x2="250" y2="120" stroke="#9b59b6" stroke-width="4" />
  <line x1="250" y1="250" x2="380" y2="250" stroke="#e74c3c" stroke-width="4" />
  <line x1="250" y1="250" x2="315" y2="380" stroke="#2ecc71" stroke-width="4" />
  <line x1="250" y1="250" x2="185" y2="380" stroke="#f39c12" stroke-width="4" />
  <line x1="250" y1="250" x2="120" y2="250" stroke="#1abc9c" stroke-width="4" />
  <line x1="250" y1="250" x2="185" y2="120" stroke="#e67e22" stroke-width="4" />
  <line x1="250" y1="250" x2="315" y2="120" stroke="#9b59b6" stroke-width="4" />
  
  <!-- Interconnecting threads between nodes -->
  <path d="M250,120 Q290,185 380,250" fill="none" stroke="#9b59b6" stroke-width="2" stroke-opacity="0.7" />
  <path d="M380,250 Q330,330 315,380" fill="none" stroke="#e74c3c" stroke-width="2" stroke-opacity="0.7" />
  <path d="M315,380 Q250,380 185,380" fill="none" stroke="#2ecc71" stroke-width="2" stroke-opacity="0.7" />
  <path d="M185,380 Q140,320 120,250" fill="none" stroke="#f39c12" stroke-width="2" stroke-opacity="0.7" />
  <path d="M120,250 Q140,180 185,120" fill="none" stroke="#1abc9c" stroke-width="2" stroke-opacity="0.7" />
  <path d="M185,120 Q250,120 250,120" fill="none" stroke="#e67e22" stroke-width="2" stroke-opacity="0.7" />
  <path d="M250,120 Q290,120 315,120" fill="none" stroke="#9b59b6" stroke-width="2" stroke-opacity="0.7" />
  <path d="M315,120 Q360,180 380,250" fill="none" stroke="#9b59b6" stroke-width="2" stroke-opacity="0.7" />
  
  <!-- Additional neural connections -->
  <path d="M185,120 Q210,235 185,380" fill="none" stroke="#e67e22" stroke-width="1.5" stroke-opacity="0.5" />
  <path d="M315,120 Q290,235 315,380" fill="none" stroke="#9b59b6" stroke-width="1.5" stroke-opacity="0.5" />
  <path d="M120,250 Q250,280 380,250" fill="none" stroke="#1abc9c" stroke-width="1.5" stroke-opacity="0.5" />
  
  <!-- Animated gradient effects - note: these won't animate in static SVG but show the intent -->
  <linearGradient id="gradient1" x1="0%" y1="0%" x2="100%" y2="100%">
    <stop offset="0%" stop-color="#3498db" stop-opacity="0.2" />
    <stop offset="50%" stop-color="#9b59b6" stop-opacity="0.3" />
    <stop offset="100%" stop-color="#2ecc71" stop-opacity="0.2" />
  </linearGradient>
  
  <!-- Overlays to create depth -->
  <circle cx="250" cy="250" r="160" fill="url(#gradient1)" fill-opacity="0.15" />
  
  <!-- Light pulse effects -->
  <circle cx="250" cy="250" r="35" fill="none" stroke="#3498db" stroke-width="2" stroke-opacity="0.3" />
  <circle cx="250" cy="250" r="55" fill="none" stroke="#3498db" stroke-width="1.5" stroke-opacity="0.2" />
  <circle cx="250" cy="250" r="75" fill="none" stroke="#3498db" stroke-width="1" stroke-opacity="0.1" />
</svg>
